<?xml version="1.0" encoding="UTF-8" standalone="no"?>
<!-- Uploaded to: SVG Repo, www.svgrepo.com, Generator: SVG Repo Mixer Tools -->

<svg
   fill="#000000"
   width="94.999985"
   height="91.902374"
   viewBox="0 0 60.79999 58.81752"
   version="1.1"
   xml:space="preserve"
   id="svg1"
   sodipodi:docname="analysis-analytical-business-svgrepo-com.svg"
   inkscape:version="1.4 (86a8ad7, 2024-10-11)"
   xmlns:inkscape="http://www.inkscape.org/namespaces/inkscape"
   xmlns:sodipodi="http://sodipodi.sourceforge.net/DTD/sodipodi-0.dtd"
   xmlns="http://www.w3.org/2000/svg"
   xmlns:svg="http://www.w3.org/2000/svg"><defs
   id="defs1" /><sodipodi:namedview
   id="namedview1"
   pagecolor="#ffffff"
   bordercolor="#000000"
   borderopacity="0.25"
   inkscape:showpageshadow="2"
   inkscape:pageopacity="0.0"
   inkscape:pagecheckerboard="0"
   inkscape:deskcolor="#d1d1d1"
   inkscape:zoom="0.96625"
   inkscape:cx="218.88745"
   inkscape:cy="254.07503"
   inkscape:window-width="1920"
   inkscape:window-height="991"
   inkscape:window-x="-9"
   inkscape:window-y="-9"
   inkscape:window-maximized="1"
   inkscape:current-layer="Layer_1" />



<g
   id="Layer_1"
   transform="translate(-115.98035,-93.458001)"><rect
     style="fill:#000000;stroke-width:0.560332"
     id="rect1"
     width="64"
     height="64"
     x="114.38034"
     y="90.86676" /><path
     d="m 118.39381,121.4443 c 0,0.25734 -0.20804,0.46539 -0.46525,0.46539 -0.25536,0 -0.4634,-0.20791 -0.4634,-0.46539 v -12.57822 c 0,-0.80587 0.32911,-1.536 0.85675,-2.06575 0.53345,-0.52949 1.26358,-0.85861 2.06535,-0.85861 h 4.22958 c 0.25721,0 0.46525,0.20804 0.46525,0.46539 0,0.25351 -0.20804,0.46538 -0.46525,0.46538 h -4.22958 c -0.5464,0 -1.04576,0.22311 -1.40712,0.58249 -0.36137,0.36322 -0.58633,0.86257 -0.58633,1.41123 z m 20.36183,5.14858 h 2.52876 c 0.25721,0 0.46525,0.20805 0.46525,0.46539 v 5.99198 c 0,0.25735 -0.20804,0.46539 -0.46525,0.46539 h -2.52876 c -0.25536,0 -0.46551,-0.20804 -0.46551,-0.46539 v -5.99198 c 0,-0.25721 0.21015,-0.46539 0.46551,-0.46539 z m 4.24068,-3.87376 h 2.52691 c 0.25536,0 0.46525,0.20804 0.46525,0.46539 v 9.86601 c 0,0.25734 -0.20989,0.46538 -0.46525,0.46538 h -2.52691 c -0.25721,0 -0.46538,-0.20804 -0.46538,-0.46538 v -9.86601 c 1.3e-4,-0.25735 0.20817,-0.46539 0.46538,-0.46539 z m 4.23883,4.93301 h 2.52875 c 0.2555,0 0.46552,0.20804 0.46552,0.46525 v 4.93301 c 0,0.25734 -0.21015,0.46538 -0.46552,0.46538 h -2.52875 c -0.25536,0 -0.46526,-0.20804 -0.46526,-0.46538 v -4.93301 c 0,-0.25721 0.2099,-0.46525 0.46526,-0.46525 z m 4.24067,-3.09803 h 2.52691 c 0.25734,0 0.46539,0.20791 0.46539,0.46525 v 8.03117 c 0,0.25734 -0.20805,0.46538 -0.46539,0.46538 h -2.52691 c -0.25536,0 -0.46538,-0.20804 -0.46538,-0.46538 v -8.03117 c 0,-0.25734 0.21002,-0.46525 0.46538,-0.46525 z m 3.42543,9.46116 c 0.25721,0 0.46539,0.20791 0.46539,0.46525 0,0.25351 -0.20805,0.46539 -0.46539,0.46539 h -17.04228 c -0.25721,0 -0.46525,-0.21188 -0.46525,-0.46539 0,-0.25721 0.20804,-0.46525 0.46525,-0.46525 z M 140.90242,97.604041 c 0.39335,0 0.74903,0.158873 1.00611,0.415952 l 0.0304,0.03423 c 0.23844,0.253378 0.38595,0.597692 0.38595,0.972142 0,0.39335 -0.15888,0.749031 -0.41635,1.006375 -0.15121,0.15134 -0.33467,0.26845 -0.54086,0.34048 v 0.57866 l 0.75472,0.75657 1.64741,-1.64941 v -2.473639 c 0,-0.257475 0.20805,-0.465517 0.46539,-0.465517 0.25721,0 0.46525,0.208042 0.46525,0.465517 v 2.662919 c 0,0.1401 -0.0624,0.26488 -0.16072,0.35185 l -1.76109,1.76294 3.57293,3.57861 c 0.0891,0.0908 0.13429,0.20804 0.13429,0.32528 l 0.002,10.39564 c 0,0.25721 -0.20804,0.46538 -0.4634,0.46538 -0.25721,0 -0.46525,-0.20804 -0.46525,-0.46538 v -10.2028 c -1.65324,-1.6568 -3.30621,-3.31003 -4.95931,-4.96697 -0.0983,-0.083 -0.16073,-0.21187 -0.16073,-0.35158 v -0.76794 c -0.20619,-0.072 -0.38964,-0.18927 -0.539,-0.34048 l -0.0304,-0.0341 c -0.24029,-0.25351 -0.38595,-0.593991 -0.38595,-0.972273 0,-0.38965 0.15887,-0.745198 0.41635,-1.002409 0.25536,-0.261177 0.61091,-0.42005 1.00241,-0.42005 z m 14.34513,0.416084 c 0.25708,-0.257078 0.61276,-0.415952 1.00426,-0.415952 0.37273,0 0.71506,0.147507 0.97042,0.385949 l 0.0341,0.0341 c 0.25721,0.253378 0.41609,0.612759 0.41609,1.002409 0,0.39335 -0.15888,0.749031 -0.41609,1.006379 -0.15147,0.15134 -0.3348,0.26844 -0.53927,0.33651 v 0.7719 c 0,0.13984 -0.0623,0.26858 -0.16059,0.35158 -1.65324,1.65694 -3.30634,3.31017 -4.95944,4.96698 v 10.20279 c 0,0.25721 -0.20804,0.46538 -0.46539,0.46538 -0.25708,0 -0.46525,-0.20804 -0.46525,-0.46538 V 106.267 c 0.004,-0.11724 0.0471,-0.23447 0.13614,-0.32528 l 3.57478,-3.57861 -1.76267,-1.76294 c -0.0986,-0.087 -0.15914,-0.21188 -0.15914,-0.35185 v -2.662916 c 0,-0.257475 0.20817,-0.465517 0.46539,-0.465517 0.25549,0 0.46353,0.208042 0.46353,0.465517 v 2.473906 l 1.64729,1.6494 0.75484,-0.75656 v -0.5788 c -0.20632,-0.072 -0.38779,-0.18927 -0.539,-0.34048 -0.25721,-0.257339 -0.41609,-0.613152 -0.41609,-1.00637 0,-0.37445 0.14751,-0.718763 0.38569,-0.972141 z m -33.70244,51.943935 c -0.25748,0 -0.46539,-0.21175 -0.46539,-0.46526 0,-0.25721 0.20805,-0.46538 0.46539,-0.46538 h 37.99413 c 0.25536,0 0.46539,0.20804 0.46539,0.46538 0,0.25351 -0.21003,0.46526 -0.46539,0.46526 z m 22.24743,2.31146 c -0.25536,0 -0.46525,-0.21188 -0.46525,-0.46539 0,-0.25721 0.20989,-0.46525 0.46525,-0.46525 h 26.29169 c 0.25722,0 0.46539,0.20791 0.46539,0.46525 0,0.25351 -0.20804,0.46539 -0.46539,0.46539 z m 28.98329,0 c -0.25549,0 -0.46539,-0.21188 -0.46539,-0.46539 0,-0.25721 0.2099,-0.46525 0.46539,-0.46525 h 3.2873 c 0.2555,0 0.46354,0.20791 0.46354,0.46525 0,0.25351 -0.20804,0.46539 -0.46354,0.46539 z m -52.72693,-0.0719 c -0.25721,0 -0.46552,-0.20805 -0.46552,-0.46539 0,-0.25734 0.20831,-0.46525 0.46552,-0.46525 h 12.45715 c 0.25748,0 0.46552,0.20791 0.46552,0.46525 0,0.25734 -0.20804,0.46539 -0.46552,0.46539 z m 18.24347,-10.75132 v 1.52476 h 16.17588 v -1.52476 -0.9305 h 18.95999 2.88642 0.0114 c 0.25166,0.008 0.45428,0.21571 0.45428,0.46525 v 3.01119 c 0,0.23474 -0.17804,0.43142 -0.40868,0.46155 l -15.72952,3.02256 -0.0871,0.008 h -28.34951 l -0.11737,-0.0151 -15.72953,-3.02256 c -0.22337,-0.0416 -0.37828,-0.23844 -0.37828,-0.45415 v -3.01119 c 0,-0.25351 0.20804,-0.46525 0.46525,-0.46525 h 0.93236 1.95221 18.96211 v 0.9305 z m -16.03801,-33.72504 h 20.33724 v -0.53715 l -1.61728,-1.619 c -0.67726,0.62029 -2.02385,1.84237 -2.02953,1.84607 -0.18716,0.17394 -0.48218,0.15888 -0.65242,-0.0263 -0.1742,-0.18927 -0.16098,-0.48429 0.0283,-0.65453 0.006,-0.004 1.38254,-1.22948 2.01063,-1.80854 l -2.65749,-2.65921 c -0.10019,-0.087 -0.16073,-0.21187 -0.16073,-0.35185 v -5.693401 c -0.20434,-0.07177 -0.38964,-0.189273 -0.53927,-0.34048 -0.25906,-0.257079 -0.41793,-0.61276 -0.41793,-1.00241 0,-0.393614 0.15887,-0.749163 0.41608,-1.006242 l 0.0341,-0.0304 c 0.25722,-0.241879 0.5977,-0.385684 0.97228,-0.385684 0.39335,0 0.74705,0.158873 1.00426,0.416084 l 0.0304,0.03027 c 0.24003,0.257343 0.38568,0.59756 0.38568,0.976107 0,0.389649 -0.15887,0.74533 -0.41608,1.002409 -0.14936,0.151339 -0.33467,0.26871 -0.53901,0.340481 v 5.500296 c 1.64742,1.65323 3.2951,3.2988 4.94252,4.95204 0.0888,0.087 0.13429,0.20804 0.13429,0.32541 l 0.002,9.6388 c 0,0.25351 -0.20989,0.46539 -0.46525,0.46539 -0.25536,0 -0.46539,-0.21188 -0.46539,-0.46539 v -5.03887 H 123.4195 v 25.98148 h 45.9197 v -25.98148 h -14.77642 v 5.03887 c 0,0.25351 -0.20804,0.46539 -0.46538,0.46539 -0.25536,0 -0.46341,-0.21188 -0.46341,-0.46539 v -9.6388 c 0.002,-0.11737 0.0473,-0.23844 0.13442,-0.32541 1.64941,-1.65324 3.29511,-3.29881 4.94424,-4.95204 v -5.500429 c -0.20434,-0.07177 -0.38964,-0.189273 -0.54098,-0.34048 -0.25536,-0.257079 -0.41596,-0.61276 -0.41596,-1.00241 0,-0.378414 0.14751,-0.718763 0.38569,-0.976106 l 0.0303,-0.03027 c 0.25734,-0.257211 0.61289,-0.416084 1.00624,-0.416084 0.38952,0 0.74718,0.158873 1.00452,0.416084 0.25536,0.257079 0.41595,0.61276 0.41595,1.006242 0,0.38965 -0.16072,0.745331 -0.41595,1.002409 -0.14949,0.15134 -0.33493,0.268711 -0.539,0.340481 v 5.693273 c 0,0.1401 -0.0645,0.26488 -0.16284,0.35185 l -2.65565,2.65921 c 0.61316,0.58659 1.96332,1.84634 1.96728,1.84991 0.18914,0.1742 0.20051,0.46538 0.0303,0.65453 -0.17394,0.1894 -0.46538,0.20077 -0.65453,0.0303 -0.004,-0.008 -1.33152,-1.24838 -1.9953,-1.88401 l -1.60988,1.61147 v 0.53716 h 15.94127 c 0.80586,0 1.53586,0.32898 2.06562,0.85873 0.52962,0.53359 0.8586,1.26372 0.8586,2.06549 v 28.9435 h -54.09798 v -28.9435 c 0,-0.80177 0.32912,-1.5319 0.85861,-2.06165 0.5316,-0.5332 1.26173,-0.86218 2.06562,-0.86218 z"
     style="clip-rule:evenodd;fill:#ffffff;fill-rule:evenodd;stroke-width:0.132174"
     id="path1" /></g>

</svg>
