<?xml version="1.0" encoding="UTF-8" standalone="no"?>
<!-- Uploaded to: SVG Repo, www.svgrepo.com, Generator: SVG Repo Mixer Tools -->

<svg
   fill="#000000"
   width="100"
   height="100"
   viewBox="0 0 3 3"
   role="img"
   version="1.1"
   id="svg1"
   sodipodi:docname="dbt.svg"
   inkscape:version="1.4 (86a8ad7, 2024-10-11)"
   xmlns:inkscape="http://www.inkscape.org/namespaces/inkscape"
   xmlns:sodipodi="http://sodipodi.sourceforge.net/DTD/sodipodi-0.dtd"
   xmlns="http://www.w3.org/2000/svg"
   xmlns:svg="http://www.w3.org/2000/svg">
  <defs
     id="defs1" />
  <sodipodi:namedview
     id="namedview1"
     pagecolor="#ffffff"
     bordercolor="#000000"
     borderopacity="0.25"
     inkscape:showpageshadow="2"
     inkscape:pageopacity="0.0"
     inkscape:pagecheckerboard="0"
     inkscape:deskcolor="#d1d1d1"
     inkscape:zoom="0.96625"
     inkscape:cx="50.194049"
     inkscape:cy="50.194049"
     inkscape:window-width="1920"
     inkscape:window-height="991"
     inkscape:window-x="-9"
     inkscape:window-y="-9"
     inkscape:window-maximized="1"
     inkscape:current-layer="layer1" />
  <g
     inkscape:groupmode="layer"
     id="layer1"
     inkscape:label="Layer 1"
     transform="translate(-10.5,-10.5)">
    <rect
       style="fill:#000000;stroke-width:0.0233368"
       id="rect1"
       width="3"
       height="3"
       x="10.5"
       y="10.5" />
  </g>
  <g
     inkscape:groupmode="layer"
     id="layer2"
     inkscape:label="Layer 2"
     transform="translate(-10.5,-10.5)">
    <path
       d="m 12.701164,11.687717 a 0.96874167,0.96874167 0 0 0 -0.361629,-0.370901 l 0.210534,0.09962 a 1.2229041,1.2229041 0 0 1 0.444606,0.356635 l 0.384453,-0.704831 a 0.33939839,0.33939839 0 0 0 -0.0073,-0.351881 0.32406305,0.32406305 0 0 0 -0.42404,-0.103662 l -0.698412,0.381601 a 0.51842955,0.51842955 0 0 1 -0.496437,0 l -0.683195,-0.372685 a 0.33927951,0.33927951 0 0 0 -0.351881,0.0075 0.32406305,0.32406305 0 0 0 -0.103662,0.423921 l 0.381006,0.698174 a 0.51842955,0.51842955 0 0 1 0,0.496556 l -0.371733,0.682719 a 0.33999278,0.33999278 0 0 0 0.0101,0.356279 0.32406305,0.32406305 0 0 0 0.421425,0.09974 l 0.720166,-0.392894 a 1.223023,1.223023 0 0 1 -0.35723,-0.445319 l -0.09962,-0.210416 a 0.96862279,0.96862279 0 0 0 0.370901,0.361629 l 1.258211,0.687 a 0.32406305,0.32406305 0 0 0 0.421187,-0.0995 0.34118157,0.34118157 0 0 0 0.0095,-0.356754 z m 0.401809,-0.919525 a 0.12963711,0.12963711 0 1 1 0,0.259274 0.129578,0.129578 0 0 1 0,-0.259156 z m -2.203533,0.259274 a 0.129578,0.129578 0 1 1 0,-0.259156 0.129578,0.129578 0 0 1 0,0.259156 z m 0,2.203533 a 0.12957767,0.12957767 0 1 1 0,-0.259155 0.12957767,0.12957767 0 0 1 0,0.259155 z m 1.231463,-1.360922 a 0.25844206,0.25844206 0 0 0 -0.259155,0.257729 0.25844206,0.25844206 0 0 0 0.08369,0.191395 0.32334978,0.32334978 0 1 1 0.09011,-0.640281 0.32334978,0.32334978 0 0 1 0.275085,0.275086 0.25701552,0.25701552 0 0 0 -0.18973,-0.08393 z m 0.97207,1.36116 a 0.12969655,0.12969655 0 1 1 0,-0.259393 0.12963711,0.12963711 0 0 1 0,0.259274 z"
       id="path1"
       style="fill:#ffffff;stroke-width:0.118879" />
  </g>
</svg>
