<?xml version="1.0" encoding="UTF-8" standalone="no"?>
<!-- Uploaded to: SVG Repo, www.svgrepo.com, Generator: SVG Repo Mixer Tools -->

<svg
   fill="#000000"
   width="100"
   height="100"
   viewBox="0 0 3 3"
   role="img"
   version="1.1"
   id="svg1"
   sodipodi:docname="pg.svg"
   inkscape:version="1.4 (86a8ad7, 2024-10-11)"
   xmlns:inkscape="http://www.inkscape.org/namespaces/inkscape"
   xmlns:sodipodi="http://sodipodi.sourceforge.net/DTD/sodipodi-0.dtd"
   xmlns="http://www.w3.org/2000/svg"
   xmlns:svg="http://www.w3.org/2000/svg"
   xmlns:rdf="http://www.w3.org/1999/02/22-rdf-syntax-ns#"
   xmlns:cc="http://creativecommons.org/ns#"
   xmlns:dc="http://purl.org/dc/elements/1.1/">
  <defs
     id="defs1" />
  <sodipodi:namedview
     id="namedview1"
     pagecolor="#ffffff"
     bordercolor="#000000"
     borderopacity="0.25"
     inkscape:showpageshadow="2"
     inkscape:pageopacity="0.0"
     inkscape:pagecheckerboard="0"
     inkscape:deskcolor="#d1d1d1"
     inkscape:zoom="1.9325"
     inkscape:cx="138.42173"
     inkscape:cy="7.5032342"
     inkscape:window-width="1920"
     inkscape:window-height="991"
     inkscape:window-x="-9"
     inkscape:window-y="-9"
     inkscape:window-maximized="1"
     inkscape:current-layer="layer2" />
  <title
     id="title1">PostgreSQL icon</title>
  <g
     inkscape:groupmode="layer"
     id="layer2"
     inkscape:label="Layer 2"
     transform="translate(-2.1636481,-2.3188875)">
    <rect
       style="fill:#000000;stroke-width:0.0249153"
       id="rect1"
       width="3"
       height="3"
       x="2.1636481"
       y="2.3188875" />
  </g>
  <g
     inkscape:groupmode="layer"
     id="layer1"
     inkscape:label="Layer 1"
     transform="translate(-2.1636481,-2.3188875)">
    <path
       d="m 4.2675835,2.3938714 a 1.2034233,1.2034233 0 0 0 -0.327159,0.04786 l -0.0075,0.0024 a 1.2969992,1.2969992 0 0 0 -0.203065,-0.01959 c -0.139888,-0.0024 -0.260064,0.03159 -0.356965,0.08811 -0.09548,-0.03313 -0.293553,-0.09025 -0.502317,-0.07885 -0.145352,0.008 -0.304003,0.05213 -0.421567,0.176227 -0.117207,0.124095 -0.179195,0.316115 -0.166132,0.577368 0.0036,0.07208 0.02411,0.189645 0.05819,0.341884 0.03408,0.152239 0.08194,0.330484 0.14167,0.493054 0.05973,0.162689 0.125163,0.308753 0.227408,0.408029 0.05106,0.04976 0.121364,0.09156 0.204252,0.08811 0.05819,-0.0024 0.110795,-0.02791 0.156158,-0.06555 0.02209,0.02909 0.04572,0.0418 0.06721,0.05356 0.02707,0.01484 0.05344,0.02494 0.08075,0.03159 0.04904,0.01223 0.133002,0.02862 0.231327,0.01187 0.03349,-0.0056 0.06876,-0.01651 0.103908,-0.03206 0.0013,0.03919 0.0028,0.07754 0.0044,0.116377 0.0049,0.123026 0.008,0.23667 0.04489,0.336303 0.0059,0.01627 0.02221,0.100107 0.08633,0.174089 0.06413,0.0741 0.189765,0.120294 0.33286,0.08966 0.100938,-0.02161 0.229308,-0.06056 0.314571,-0.181927 0.08431,-0.119939 0.122314,-0.292009 0.129795,-0.571074 0.0019,-0.01508 0.0042,-0.02791 0.0065,-0.0399 l 0.02007,0.0018 h 0.0024 c 0.107708,0.0049 0.224559,-0.01045 0.322172,-0.05581 0.08645,-0.04002 0.151883,-0.08051 0.199502,-0.152358 0.01187,-0.01781 0.02494,-0.03931 0.0285,-0.07636 0.0036,-0.03705 -0.01769,-0.095 -0.05296,-0.12172 -0.07066,-0.05368 -0.11507,-0.03325 -0.162689,-0.02339 a 0.74456921,0.74456921 0 0 1 -0.142739,0.01734 c 0.137277,-0.231208 0.235721,-0.476785 0.29189,-0.6941 0.03325,-0.128251 0.0519,-0.246527 0.05344,-0.349959 0.0015,-0.103432 -0.0069,-0.194989 -0.06887,-0.274196 -0.193683,-0.247478 -0.465979,-0.315878 -0.676644,-0.318253 -0.0065,-1.19e-4 -0.01306,-2.38e-4 -0.01959,-1.19e-4 z m -0.0056,0.076 c 0.199264,-0.0019 0.453867,0.05403 0.636625,0.287615 0.04109,0.05249 0.05332,0.129201 0.05189,0.223727 -0.0015,0.09441 -0.019,0.207458 -0.05094,0.331315 -0.06199,0.239877 -0.179077,0.519536 -0.344022,0.770457 a 0.08977581,0.08977581 0 0 0 0.01876,0.01021 c 0.03444,0.01425 0.112933,0.02648 0.269565,-0.0057 0.03943,-0.0083 0.06828,-0.01389 0.09821,0.0089 a 0.06175056,0.06175056 0 0 1 0.02173,0.05047 0.08360075,0.08360075 0 0 1 -0.01544,0.0399 c -0.03028,0.04548 -0.09001,0.08859 -0.166608,0.124094 -0.06781,0.03159 -0.165064,0.04809 -0.251277,0.04904 -0.04322,4.75e-4 -0.08313,-0.0028 -0.11697,-0.01342 l -0.0021,-8.32e-4 c -0.01306,0.125877 -0.04311,0.374423 -0.0627,0.48783 -0.01567,0.09144 -0.04311,0.164114 -0.09548,0.218502 -0.05225,0.05439 -0.126232,0.08716 -0.225745,0.108538 -0.123264,0.02648 -0.213159,-0.002 -0.271109,-0.05082 -0.05783,-0.04869 -0.08431,-0.113289 -0.100226,-0.152833 -0.01093,-0.02731 -0.01662,-0.0627 -0.02209,-0.109963 -0.0055,-0.04726 -0.0095,-0.105095 -0.01223,-0.170289 a 6.1068925,6.1068925 0 0 1 -0.0036,-0.299609 0.36349703,0.36349703 0 0 1 -0.184301,0.09025 c -0.08182,0.01389 -0.154852,2.37e-4 -0.198433,-0.01069 a 0.27027744,0.27027744 0 0 1 -0.06175,-0.02387 c -0.02019,-0.01081 -0.03942,-0.02304 -0.05225,-0.04714 a 0.0665006,0.0665006 0 0 1 -0.0068,-0.04524 0.07243815,0.07243815 0 0 1 0.02589,-0.03931 c 0.02351,-0.01912 0.05462,-0.02981 0.101532,-0.03954 0.08538,-0.01757 0.115188,-0.02957 0.133357,-0.04394 0.01544,-0.01235 0.03289,-0.03729 0.06377,-0.07386 a 0.13775124,0.13775124 0 0 1 -3.57e-4,-0.0049 0.35150317,0.35150317 0 0 1 -0.157939,-0.04251 c -0.01781,0.01876 -0.108776,0.114951 -0.219689,0.248427 -0.04667,0.05581 -0.09821,0.08788 -0.152595,0.09013 -0.05439,0.0024 -0.103551,-0.02506 -0.145351,-0.06555 -0.08348,-0.08111 -0.150102,-0.22064 -0.208171,-0.378341 -0.05795,-0.157701 -0.105095,-0.333334 -0.138583,-0.482961 -0.03361,-0.149626 -0.05344,-0.270277 -0.05629,-0.328465 -0.01247,-0.24724 0.04536,-0.413848 0.14452,-0.518942 0.09928,-0.105095 0.235365,-0.144877 0.36801,-0.152477 0.238096,-0.01366 0.464198,0.06935 0.509917,0.08716 0.08811,-0.05985 0.201639,-0.09714 0.343428,-0.09476 a 0.87757041,0.87757041 0 0 1 0.199621,0.02589 l 0.0024,-0.0011 a 0.81391984,0.81391984 0 0 1 0.08776,-0.02541 1.1430978,1.1430978 0 0 1 0.245933,-0.02981 z m 0.01805,0.07956 h -0.01734 a 1.0378844,1.0378844 0 0 0 -0.202352,0.0228 c 0.147964,0.06555 0.259708,0.166489 0.33844,0.26719 a 1.002259,1.002259 0 0 1 0.134426,0.228002 c 0.01306,0.03135 0.02185,0.05783 0.02684,0.07838 0.0025,0.01033 0.0042,0.019 0.0047,0.02802 2.38e-4,0.0045 4.75e-4,0.0091 -0.0014,0.0171 0,3.56e-4 -5.94e-4,0.0012 -7.12e-4,0.0015 0.0036,0.104026 -0.02221,0.174564 -0.02529,0.27384 -0.0024,0.07196 0.01603,0.156514 0.02054,0.248783 0.0043,0.08669 -0.0062,0.181927 -0.06246,0.275384 0.0048,0.0057 0.009,0.0114 0.01354,0.0171 0.148914,-0.234533 0.256265,-0.494004 0.313503,-0.715238 0.03064,-0.119107 0.04691,-0.227052 0.04833,-0.312552 0.0012,-0.0855 -0.01473,-0.147489 -0.03503,-0.173377 -0.159364,-0.203777 -0.375016,-0.255671 -0.555755,-0.257096 z m -0.568817,0.0304 c -0.140364,3.56e-4 -0.241065,0.04275 -0.317422,0.106282 -0.07873,0.06567 -0.131576,0.155564 -0.166252,0.247596 -0.04121,0.109251 -0.05534,0.21494 -0.06092,0.286665 l 0.0015,-9.5e-4 c 0.04239,-0.02375 0.09809,-0.0475 0.157701,-0.06128 0.05961,-0.01366 0.123858,-0.01793 0.182046,0.0046 0.05819,0.02256 0.106282,0.07564 0.123738,0.156158 0.0836,0.386772 -0.02601,0.530579 -0.06638,0.639118 a 1.1411978,1.1411978 0 0 0 -0.03931,0.120295 c 0.0051,-0.0012 0.01021,-0.0026 0.01532,-0.0031 0.0285,-0.0024 0.05082,0.0071 0.06413,0.01283 0.04061,0.01686 0.06852,0.05225 0.0836,0.09263 0.0039,0.01057 0.0068,0.02197 0.0084,0.03373 a 0.03990036,0.03990036 0 0 1 0.0024,0.01508 6.547934,6.547934 0 0 0 0.0015,0.443891 c 0.0027,0.06389 0.0068,0.120176 0.01187,0.164589 0.0051,0.04429 0.01235,0.07802 0.01698,0.08942 0.0152,0.038 0.03741,0.08776 0.07754,0.121601 0.04014,0.03372 0.09773,0.05629 0.202946,0.03372 0.0912,-0.01959 0.147489,-0.04679 0.185133,-0.08586 0.03752,-0.03907 0.05997,-0.09346 0.07434,-0.176701 0.02149,-0.124689 0.06472,-0.486286 0.06994,-0.55433 -0.0024,-0.0513 0.0052,-0.09073 0.02161,-0.12077 0.01686,-0.03087 0.04299,-0.04976 0.06555,-0.05997 0.01128,-0.0051 0.02185,-0.0085 0.03052,-0.01104 a 0.70728137,0.70728137 0 0 0 -0.02886,-0.03859 0.52915477,0.52915477 0 0 1 -0.07909,-0.130508 0.98515888,0.98515888 0 0 0 -0.03052,-0.05736 c -0.01579,-0.0285 -0.03574,-0.06412 -0.05664,-0.104144 -0.0418,-0.08016 -0.08728,-0.177296 -0.110914,-0.27194 -0.02351,-0.09453 -0.02696,-0.192377 0.03337,-0.261371 0.05344,-0.06128 0.147251,-0.08669 0.28809,-0.07244 -0.0042,-0.01247 -0.0066,-0.0228 -0.01366,-0.03943 a 0.92827712,0.92827712 0 0 0 -0.12362,-0.209477 c -0.119345,-0.152595 -0.312553,-0.303884 -0.611093,-0.308752 h -0.01366 z m -0.788745,0.0062 c -0.01508,0 -0.03016,4.75e-4 -0.04512,0.0013 -0.119939,0.0069 -0.233346,0.04168 -0.314453,0.127658 -0.08123,0.08598 -0.134664,0.226933 -0.123026,0.460279 0.0023,0.04417 0.02149,0.167914 0.05451,0.314928 0.03289,0.147014 0.07956,0.320034 0.135614,0.472866 0.05617,0.152833 0.124214,0.285834 0.188814,0.348772 0.03254,0.03147 0.0608,0.04418 0.08645,0.04311 0.02577,-0.0012 0.05676,-0.01603 0.09464,-0.06151 a 5.1352713,5.1352713 0 0 1 0.214939,-0.243202 0.41527249,0.41527249 0 0 1 -0.138582,-0.374066 c 0.01223,-0.08776 0.01389,-0.169814 0.01247,-0.234652 -0.0014,-0.06318 -0.0059,-0.105214 -0.0059,-0.131458 a 0.03990036,0.03990036 0 0 1 0,-0.0023 v -5.94e-4 l -1.19e-4,-7.12e-4 v -1.19e-4 a 1.1748043,1.1748043 0 0 1 0.0703,-0.400904 c 0.03325,-0.08835 0.08277,-0.178126 0.156989,-0.250802 -0.07291,-0.02399 -0.202352,-0.06056 -0.342478,-0.06745 a 0.90286439,0.90286439 0 0 0 -0.04513,-0.0012 z m 1.472276,0.627243 c -0.08063,0.0011 -0.125876,0.02185 -0.149627,0.04904 -0.03361,0.0386 -0.03681,0.106283 -0.01591,0.189646 0.02078,0.08348 0.06377,0.17682 0.104144,0.254365 0.02019,0.03883 0.03978,0.07374 0.05558,0.102126 0.01591,0.0285 0.02755,0.04869 0.03468,0.06591 0.0065,0.01591 0.01378,0.02993 0.02114,0.04299 0.03123,-0.06591 0.03681,-0.130626 0.03361,-0.198076 -0.0042,-0.08348 -0.02351,-0.168864 -0.02066,-0.255315 0.0032,-0.101057 0.02316,-0.166846 0.02494,-0.244984 a 0.68792495,0.68792495 0 0 0 -0.08788,-0.0057 z m -0.977797,0.01366 a 0.33487802,0.33487802 0 0 0 -0.07315,0.0088 0.55397374,0.55397374 0 0 0 -0.13692,0.05332 0.28702134,0.28702134 0 0 0 -0.04144,0.02708 l -0.0026,0.0024 c 7.13e-4,0.01734 0.0042,0.05938 0.0056,0.121245 0.0014,0.06769 -2.37e-4,0.15402 -0.0133,0.247477 -0.02838,0.203064 0.118989,0.371216 0.292128,0.371453 0.01009,-0.04168 0.02672,-0.08396 0.04334,-0.128489 0.04821,-0.129913 0.143095,-0.224677 0.06318,-0.594467 -0.01306,-0.06056 -0.03895,-0.08503 -0.07458,-0.0988 a 0.17503908,0.17503908 0 0 0 -0.06223,-0.01 z m 0.940153,0.02423 h 0.0059 c 0.0078,2.37e-4 0.01508,0.0011 0.02138,0.0026 0.0064,0.0014 0.01187,0.0036 0.01639,0.0065 a 0.01947518,0.01947518 0 0 1 0.0089,0.01306 l -1.18e-4,9.5e-4 h 1.18e-4 -1.18e-4 a 0.02850026,0.02850026 0 0 1 -0.0042,0.01603 0.07932571,0.07932571 0 0 1 -0.01306,0.01781 0.08039447,0.08039447 0 0 1 -0.04584,0.02518 0.07006313,0.07006313 0 0 1 -0.04869,-0.01223 0.07220065,0.07220065 0 0 1 -0.01544,-0.01401 0.03087528,0.03087528 0 0 1 -0.0075,-0.01508 0.02018768,0.02018768 0 0 1 0.005,-0.0152 0.04560041,0.04560041 0 0 1 0.01389,-0.01069 c 0.0114,-0.0064 0.02684,-0.01116 0.04429,-0.01377 0.0065,-9.5e-4 0.01294,-0.0014 0.019,-0.0015 z m -0.928634,0.01995 c 0.0063,0 0.01294,5.94e-4 0.01971,0.0015 0.01817,0.0025 0.03432,0.0074 0.04667,0.01449 a 0.05296298,0.05296298 0 0 1 0.01579,0.01259 0.02648149,0.02648149 0 0 1 0.0064,0.02019 0.03586282,0.03586282 0 0 1 -0.0089,0.01829 0.07706944,0.07706944 0 0 1 -0.01698,0.01544 0.07600068,0.07600068 0 0 1 -0.0532,0.01342 0.08645078,0.08645078 0 0 1 -0.04988,-0.02707 0.08431326,0.08431326 0 0 1 -0.01401,-0.01948 0.0332503,0.0332503 0 0 1 -0.0049,-0.02102 c 0.0018,-0.01283 0.01235,-0.01948 0.02268,-0.02316 a 0.10283843,0.10283843 0 0 1 0.03646,-0.0047 z m 1.075885,0.871989 -3.56e-4,1.19e-4 c -0.01746,0.0063 -0.03183,0.0089 -0.04394,0.01425 a 0.05367548,0.05367548 0 0 0 -0.02838,0.02541 c -0.0075,0.01366 -0.01389,0.03788 -0.01199,0.07909 a 0.06056305,0.06056305 0 0 0 0.01758,0.0083 c 0.02031,0.0062 0.05439,0.01021 0.09239,0.0096 0.07576,-8.31e-4 0.168983,-0.01853 0.218502,-0.04156 a 0.46906673,0.46906673 0 0 0 0.111982,-0.07303 h -1.19e-4 c -0.16542,0.0342 -0.258877,0.02506 -0.316234,0.0014 a 0.15615766,0.15615766 0 0 1 -0.03942,-0.02375 z m -0.95369,0.01116 h -0.0025 c -0.0063,5.93e-4 -0.01544,0.0027 -0.03313,0.02233 -0.04133,0.04631 -0.05581,0.07541 -0.0899,0.102601 -0.03408,0.02707 -0.07837,0.04156 -0.166845,0.05973 -0.02803,0.0057 -0.04406,0.01199 -0.05474,0.0171 0.0034,0.0029 0.0031,0.0036 0.0083,0.0063 0.01294,0.0071 0.02957,0.01342 0.04299,0.01686 0.038,0.0095 0.100464,0.02054 0.165658,0.0095 0.06519,-0.01116 0.133001,-0.04239 0.190833,-0.123501 0.01,-0.01401 0.01104,-0.03468 0.0028,-0.05688 -0.0083,-0.02221 -0.02648,-0.04133 -0.03931,-0.04667 a 0.07754445,0.07754445 0 0 0 -0.02422,-0.0071 z"
       id="path1"
       style="fill:#f9f9f9;stroke-width:0.118751" />
  </g>
  <metadata
     id="metadata1">
    <rdf:RDF>
      <cc:Work
         rdf:about="">
        <dc:title>PostgreSQL icon</dc:title>
      </cc:Work>
    </rdf:RDF>
  </metadata>
</svg>
