<?xml version="1.0" encoding="UTF-8" standalone="no"?>
<!-- Uploaded to: SVG Repo, www.svgrepo.com, Generator: SVG Repo Mixer Tools -->

<svg
   width="100"
   height="100.00024"
   viewBox="0 0 2.5 2.5000061"
   version="1.1"
   id="svg1"
   sodipodi:docname="python.svg"
   inkscape:version="1.4 (86a8ad7, 2024-10-11)"
   xmlns:inkscape="http://www.inkscape.org/namespaces/inkscape"
   xmlns:sodipodi="http://sodipodi.sourceforge.net/DTD/sodipodi-0.dtd"
   xmlns="http://www.w3.org/2000/svg"
   xmlns:svg="http://www.w3.org/2000/svg"
   xmlns:rdf="http://www.w3.org/1999/02/22-rdf-syntax-ns#"
   xmlns:cc="http://creativecommons.org/ns#"
   xmlns:dc="http://purl.org/dc/elements/1.1/">
  <sodipodi:namedview
     id="namedview1"
     pagecolor="#ffffff"
     bordercolor="#000000"
     borderopacity="0.25"
     inkscape:showpageshadow="2"
     inkscape:pageopacity="0.0"
     inkscape:pagecheckerboard="0"
     inkscape:deskcolor="#d1d1d1"
     inkscape:zoom="0.96625"
     inkscape:cx="50.194049"
     inkscape:cy="322.38034"
     inkscape:window-width="1920"
     inkscape:window-height="991"
     inkscape:window-x="-9"
     inkscape:window-y="-9"
     inkscape:window-maximized="1"
     inkscape:current-layer="layer2" />
  <title
     id="title1">python [#127]</title>
  <desc
     id="desc1">Created with Sketch.</desc>
  <defs
     id="defs1" />
  <g
     inkscape:groupmode="layer"
     id="layer2"
     inkscape:label="Layer 2"
     transform="translate(-8.75,-1.9324)">
    <rect
       style="fill:#000000;stroke-width:0.0178102"
       id="rect1"
       width="2.5"
       height="2.5"
       x="8.75"
       y="1.9324061" />
  </g>
  <g
     inkscape:groupmode="layer"
     id="layer1"
     inkscape:label="Layer 1"
     transform="translate(-8.75,-1.9324)">
    <path
       d="m 296.744,7457.458 c -0.482,0 -0.872,-0.3921 -0.872,-0.8766 0,-0.4845 0.39,-0.8755 0.872,-0.8755 0.482,0 0.872,0.391 0.872,0.8755 0,0.4845 -0.39,0.8766 -0.872,0.8766 m -2.672,1.542 c 5.078,0 4.761,-2.2135 4.761,-2.2135 l -0.006,-2.2929 h -4.845 v -0.6886 h 6.769 c 0,0 3.249,0.3709 3.249,-4.7789 0,-5.1497 -2.835,-4.9678 -2.835,-4.9678 h -1.693 v 2.3904 c 0,0 0.091,2.8499 -2.79,2.8499 h -4.806 c 0,0 -2.7,-0.043 -2.7,2.6236 v 4.4089 c 0,0 -0.41,2.6689 4.896,2.6689 m -2.815,-18.458 c 0.482,0 0.871,0.3921 0.871,0.8766 0,0.4845 -0.389,0.8755 -0.871,0.8755 -0.482,0 -0.872,-0.391 -0.872,-0.8755 0,-0.4845 0.39,-0.8766 0.872,-0.8766 m 2.671,-1.542 c -5.077,0 -4.76,2.2135 -4.76,2.2135 l 0.006,2.2929 h 4.845 v 0.6886 h -6.77 c 0,0 -3.249,-0.3709 -3.249,4.7789 0,5.1497 2.836,4.9678 2.836,4.9678 h 1.692 v -2.3904 c 0,0 -0.091,-2.8499 2.791,-2.8499 h 4.805 c 0,0 2.7,0.043 2.7,-2.6236 v -4.4089 c 0,0 0.41,-2.6689 -4.896,-2.6689"
       id="python-[#127]"
       transform="matrix(0.125,0,0,0.125,-26.75,-927.9426)"
       style="fill:#ffffff" />
  </g>
  <metadata
     id="metadata1">
    <rdf:RDF>
      <cc:Work
         rdf:about="">
        <dc:title>python [#127]</dc:title>
      </cc:Work>
    </rdf:RDF>
  </metadata>
</svg>
