<?xml version="1.0" encoding="UTF-8" standalone="no"?>
<!-- Uploaded to: SVG Repo, www.svgrepo.com, Generator: SVG Repo Mixer Tools -->

<svg
   width="800px"
   height="800px"
   viewBox="0 0 24 24"
   fill="none"
   version="1.1"
   id="svg1"
   sodipodi:docname="database-svgrepo-com.svg"
   inkscape:version="1.4 (86a8ad7, 2024-10-11)"
   xmlns:inkscape="http://www.inkscape.org/namespaces/inkscape"
   xmlns:sodipodi="http://sodipodi.sourceforge.net/DTD/sodipodi-0.dtd"
   xmlns="http://www.w3.org/2000/svg"
   xmlns:svg="http://www.w3.org/2000/svg">
  <defs
     id="defs1" />
  <sodipodi:namedview
     id="namedview1"
     pagecolor="#ffffff"
     bordercolor="#000000"
     borderopacity="0.25"
     inkscape:showpageshadow="2"
     inkscape:pageopacity="0.0"
     inkscape:pagecheckerboard="0"
     inkscape:deskcolor="#d1d1d1"
     inkscape:zoom="5.4659354"
     inkscape:cx="433.13721"
     inkscape:cy="390.69251"
     inkscape:window-width="1920"
     inkscape:window-height="991"
     inkscape:window-x="-9"
     inkscape:window-y="-9"
     inkscape:window-maximized="1"
     inkscape:current-layer="layer2" />
  <g
     inkscape:groupmode="layer"
     id="layer1"
     inkscape:label="Layer 1">
    <rect
       style="fill:#000000;stroke-width:0.0290006"
       id="rect1"
       width="3"
       height="3"
       x="10.5"
       y="10.5" />
  </g>
  <g
     inkscape:groupmode="layer"
     id="layer2"
     inkscape:label="Layer 2">
    <path
       d="M 13.15232,10.850757 C 12.790786,10.681937 12.39878,10.58813 11.999996,10.575 c -0.398794,0.01313 -0.790791,0.106937 -1.152326,0.275757 -0.04642,0.02181 -0.08561,0.05648 -0.112917,0.0999 -0.02731,0.04342 -0.04158,0.09376 -0.04114,0.145047 v 1.808594 c -4.47e-4,0.05129 0.01383,0.10163 0.04114,0.145042 0.02731,0.04343 0.0665,0.07809 0.112917,0.0999 0.361535,0.168828 0.753532,0.262632 1.152326,0.275757 0.398784,-0.01313 0.79079,-0.106929 1.152324,-0.275757 0.04642,-0.02181 0.08561,-0.05648 0.112922,-0.0999 0.0273,-0.04341 0.04158,-0.09376 0.04113,-0.145042 v -1.808594 c 4.47e-4,-0.05129 -0.01383,-0.101628 -0.04113,-0.145047 -0.02731,-0.04342 -0.06651,-0.07809 -0.112922,-0.0999 z m -0.07395,1.232432 c -0.337563,0.16111 -0.704581,0.251293 -1.078378,0.264973 -0.373794,-0.01368 -0.740812,-0.103863 -1.07838,-0.264973 v -0.594648 c 0.340408,0.149685 0.70665,0.23182 1.07838,0.241864 0.371732,-0.01004 0.737965,-0.09218 1.078378,-0.241864 z M 10.94472,11.06027 c 0.330971,-0.155155 0.689953,-0.241626 1.055272,-0.254189 0.36577,0.01282 0.725209,0.09928 1.056811,0.254189 0.0065,0.0034 0.01192,0.0085 0.01573,0.01471 0.0038,0.0062 0.0058,0.01341 0.0058,0.02073 v 0.134027 c -0.337563,0.161109 -0.704581,0.251291 -1.078378,0.264973 -0.373794,-0.01368 -0.740812,-0.103864 -1.07838,-0.264973 v -0.138649 c 8.09e-4,-0.0067 0.0034,-0.01309 0.0074,-0.0185 0.0041,-0.0054 0.0095,-0.0097 0.01568,-0.01231 z m 2.110542,1.87946 c -0.33097,0.155148 -0.689946,0.241618 -1.05527,0.254189 -0.365777,-0.01282 -0.725213,-0.09927 -1.056813,-0.254189 -0.0065,-0.0034 -0.01192,-0.0085 -0.01573,-0.01471 -0.0038,-0.0062 -0.0058,-0.0134 -0.0058,-0.02072 v -0.568459 c 0.340408,0.149679 0.70665,0.23182 1.07838,0.241865 0.371732,-0.01004 0.737965,-0.09219 1.078378,-0.241865 V 12.9043 c 3.1e-5,0.0075 -0.0021,0.01488 -0.0063,0.02117 -0.0041,0.0063 -0.01,0.01126 -0.01685,0.01427 z"
       fill="#000000"
       id="path1"
       style="stroke-width:0.154054;fill:#ffffff" />
  </g>
</svg>
